<svg xmlns="http://www.w3.org/2000/svg" xmlns:xlink="http://www.w3.org/1999/xlink" width="500" zoomAndPan="magnify" viewBox="0 0 375 374.999991" height="500" preserveAspectRatio="xMidYMid meet" version="1.0"><defs><g/><clipPath id="f5e64f552b"><path d="M 199.867188 89.539062 L 357.742188 89.539062 L 357.742188 247.417969 L 199.867188 247.417969 Z M 199.867188 89.539062 " clip-rule="nonzero"/></clipPath><clipPath id="f5802f33b7"><path d="M 81 21 L 289 21 L 289 229 L 81 229 Z M 81 21 " clip-rule="nonzero"/></clipPath><clipPath id="3654e490b1"><path d="M 143.644531 21.542969 L 288.871094 83.460938 L 226.953125 228.691406 L 81.722656 166.769531 Z M 143.644531 21.542969 " clip-rule="nonzero"/></clipPath><clipPath id="5a017dc413"><path d="M 81 21 L 289 21 L 289 229 L 81 229 Z M 81 21 " clip-rule="nonzero"/></clipPath><clipPath id="2b7f2323d8"><path d="M 143.644531 21.542969 L 288.871094 83.460938 L 226.953125 228.691406 L 81.722656 166.769531 Z M 143.644531 21.542969 " clip-rule="nonzero"/></clipPath><clipPath id="a0177ec5eb"><path d="M 143.644531 21.542969 L 288.871094 83.460938 L 226.953125 228.691406 L 81.722656 166.769531 Z M 143.644531 21.542969 " clip-rule="nonzero"/></clipPath><clipPath id="661706afdf"><path d="M 27.417969 89.539062 L 185.296875 89.539062 L 185.296875 247.417969 L 27.417969 247.417969 Z M 27.417969 89.539062 " clip-rule="nonzero"/></clipPath></defs><g clip-path="url(#f5e64f552b)"><path stroke-linecap="butt" transform="matrix(1.05252, 0, 0, 1.05252, 199.866085, 89.539557)" fill-opacity="1" fill="#0c63a6" fill-rule="nonzero" stroke-linejoin="miter" d="M 0.00104751 -0.000469369 L 149.998176 -0.000469369 L 149.998176 150.000371 L 0.00104751 150.000371 Z M 0.00104751 -0.000469369 " stroke="#fcfdfd" stroke-width="2.850302" stroke-opacity="1" stroke-miterlimit="4"/></g><g clip-path="url(#f5802f33b7)"><g clip-path="url(#3654e490b1)"><path fill="#2f93c1" d="M 143.644531 21.542969 L 288.871094 83.460938 L 226.953125 228.691406 L 81.722656 166.769531 Z M 143.644531 21.542969 " fill-opacity="1" fill-rule="nonzero"/></g></g><g clip-path="url(#5a017dc413)"><g clip-path="url(#2b7f2323d8)"><g clip-path="url(#a0177ec5eb)"><path stroke-linecap="butt" transform="matrix(0.968194, 0.412796, -0.412796, 0.968194, 143.643043, 21.541923)" fill="none" stroke-linejoin="miter" d="M 0.00169035 0.00035951 L 149.999015 0.000071956 L 150.000758 150.000811 L -0.00143608 149.99914 Z M 0.00169035 0.00035951 " stroke="#ffffff" stroke-width="2.850302" stroke-opacity="1" stroke-miterlimit="4"/></g></g></g><g clip-path="url(#661706afdf)"><path stroke-linecap="butt" transform="matrix(1.05252, 0, 0, 1.05252, 27.419845, 89.539557)" fill-opacity="1" fill="#28ad5e" fill-rule="nonzero" stroke-linejoin="miter" d="M -0.00178287 -0.000469369 L 149.999057 -0.000469369 L 149.999057 150.000371 L -0.00178287 150.000371 Z M -0.00178287 -0.000469369 " stroke="#ffffff" stroke-width="2.850302" stroke-opacity="1" stroke-miterlimit="4"/></g><g fill="#fcfdfd" fill-opacity="1"><g transform="translate(55.459924, 223.026323)"><g><path d="M 54.25 -3.578125 C 49.96875 -1.960938 45.601562 -0.859375 41.15625 -0.265625 C 36.707031 0.328125 32.421875 0.21875 28.296875 -0.59375 C 24.171875 -1.40625 20.5 -3.066406 17.28125 -5.578125 C 14.070312 -8.097656 11.582031 -11.710938 9.8125 -16.421875 C 9.070312 -18.398438 8.644531 -20.972656 8.53125 -24.140625 C 8.414062 -27.316406 8.800781 -30.671875 9.6875 -34.203125 C 10.582031 -37.742188 12.148438 -41.164062 14.390625 -44.46875 C 16.640625 -47.78125 19.753906 -50.65625 23.734375 -53.09375 C 23.953125 -53.269531 24.269531 -53.429688 24.6875 -53.578125 C 25.59375 -53.921875 26.328125 -53.960938 26.890625 -53.703125 C 27.460938 -53.453125 27.859375 -53.035156 28.078125 -52.453125 C 28.578125 -51.140625 28.082031 -49.96875 26.59375 -48.9375 C 23.40625 -46.875 20.859375 -44.421875 18.953125 -41.578125 C 17.046875 -38.742188 15.6875 -35.832031 14.875 -32.84375 C 14.070312 -29.851562 13.664062 -27.054688 13.65625 -24.453125 C 13.644531 -21.859375 13.929688 -19.773438 14.515625 -18.203125 C 16.328125 -13.410156 19.1875 -9.957031 23.09375 -7.84375 C 27 -5.726562 31.507812 -4.757812 36.625 -4.9375 C 41.75 -5.113281 47.035156 -6.226562 52.484375 -8.28125 C 57.953125 -10.34375 62.925781 -12.925781 67.40625 -16.03125 C 71.894531 -19.144531 75.628906 -22.578125 78.609375 -26.328125 C 81.585938 -30.085938 83.597656 -33.957031 84.640625 -37.9375 C 85.691406 -41.925781 85.503906 -45.820312 84.078125 -49.625 C 82.765625 -53.09375 80.648438 -55.625 77.734375 -57.21875 C 74.828125 -58.8125 71.359375 -59.882812 67.328125 -60.4375 C 63.296875 -61 58.953125 -61.4375 54.296875 -61.75 C 47.046875 -62.25 41.546875 -63.535156 37.796875 -65.609375 C 34.046875 -67.679688 31.625 -70.160156 30.53125 -73.046875 C 29.226562 -76.523438 29.40625 -80.320312 31.0625 -84.4375 C 32.71875 -88.550781 35.5625 -92.453125 39.59375 -96.140625 C 43.632812 -99.835938 48.503906 -102.757812 54.203125 -104.90625 C 62.054688 -107.851562 68.085938 -108.863281 72.296875 -107.9375 C 76.515625 -107.019531 79.164062 -105.117188 80.25 -102.234375 C 81.40625 -99.179688 80.828125 -95.585938 78.515625 -91.453125 C 76.203125 -87.328125 72.375 -83.835938 67.03125 -80.984375 L 66.53125 -80.8125 C 65.78125 -80.519531 65.085938 -80.535156 64.453125 -80.859375 C 63.816406 -81.191406 63.390625 -81.648438 63.171875 -82.234375 C 62.828125 -83.140625 63.144531 -83.914062 64.125 -84.5625 C 68.03125 -86.695312 71.046875 -89.269531 73.171875 -92.28125 C 75.296875 -95.300781 75.96875 -97.84375 75.1875 -99.90625 C 74.539062 -101.644531 72.6875 -102.691406 69.625 -103.046875 C 66.570312 -103.410156 62.023438 -102.457031 55.984375 -100.1875 C 50.691406 -98.195312 46.394531 -95.6875 43.09375 -92.65625 C 39.800781 -89.625 37.53125 -86.570312 36.28125 -83.5 C 35.039062 -80.4375 34.851562 -77.75 35.71875 -75.4375 C 36.71875 -72.789062 38.484375 -70.859375 41.015625 -69.640625 C 43.546875 -68.421875 46.289062 -67.632812 49.25 -67.28125 C 52.21875 -66.9375 54.8125 -66.710938 57.03125 -66.609375 C 61.25 -66.398438 65.46875 -65.957031 69.6875 -65.28125 C 73.90625 -64.601562 77.710938 -63.253906 81.109375 -61.234375 C 84.503906 -59.210938 87.0625 -55.929688 88.78125 -51.390625 C 90.644531 -46.429688 90.960938 -41.570312 89.734375 -36.8125 C 88.515625 -32.0625 86.160156 -27.546875 82.671875 -23.265625 C 79.179688 -18.984375 74.976562 -15.160156 70.0625 -11.796875 C 65.144531 -8.441406 59.875 -5.703125 54.25 -3.578125 Z M 54.25 -3.578125 "/></g></g></g><g fill="#fcfdfd" fill-opacity="1"><g transform="translate(249.676867, 205.869016)"><g><path d="M 28.390625 27.578125 C 24.710938 29.128906 21.351562 29.503906 18.3125 28.703125 C 15.28125 27.910156 13.222656 26.238281 12.140625 23.6875 C 10.992188 20.976562 10.945312 18.25 12 15.5 C 13.050781 12.757812 14.851562 10.050781 17.40625 7.375 C 19.957031 4.695312 22.882812 2.15625 26.1875 -0.25 C 29.5 -2.664062 32.878906 -4.867188 36.328125 -6.859375 C 39.785156 -8.859375 42.976562 -10.585938 45.90625 -12.046875 C 48.832031 -13.503906 51.125 -14.582031 52.78125 -15.28125 C 53.6875 -15.664062 54.71875 -16.101562 55.875 -16.59375 C 57.039062 -17.082031 58.273438 -17.554688 59.578125 -18.015625 C 60.273438 -22.035156 60.710938 -26.296875 60.890625 -30.796875 C 61.066406 -35.304688 60.851562 -39.734375 60.25 -44.078125 C 59.15625 -40.785156 57.84375 -37.394531 56.3125 -33.90625 C 54.78125 -30.425781 53.21875 -27.726562 51.625 -25.8125 C 49.300781 -23.15625 46.453125 -20.425781 43.078125 -17.625 C 39.703125 -14.820312 36.132812 -12.625 32.375 -11.03125 C 28.101562 -9.21875 23.804688 -8.703125 19.484375 -9.484375 C 15.160156 -10.273438 11.332031 -13.15625 8 -18.125 C 7.738281 -18.550781 7.441406 -19.046875 7.109375 -19.609375 C 6.773438 -20.179688 6.5 -20.726562 6.28125 -21.25 C 4.625 -25.15625 3.890625 -29.445312 4.078125 -34.125 C 4.273438 -38.8125 4.863281 -43.140625 5.84375 -47.109375 C 1.445312 -47.015625 -2.429688 -47.492188 -5.796875 -48.546875 C -7.753906 -49.410156 -9.519531 -50.5 -11.09375 -51.8125 C -12.664062 -53.132812 -13.753906 -54.507812 -14.359375 -55.9375 C -15.316406 -58.195312 -15.335938 -60.453125 -14.421875 -62.703125 C -13.515625 -64.953125 -11.523438 -66.726562 -8.453125 -68.03125 C -7.398438 -68.46875 -6.160156 -68.878906 -4.734375 -69.265625 C -3.304688 -69.648438 -2.097656 -69.832031 -1.109375 -69.8125 C -0.222656 -69.8125 0.390625 -69.398438 0.734375 -68.578125 C 0.960938 -68.046875 1 -67.484375 0.84375 -66.890625 C 0.695312 -66.304688 0.328125 -65.882812 -0.265625 -65.625 C -0.421875 -65.5625 -0.753906 -65.515625 -1.265625 -65.484375 C -2.328125 -65.460938 -3.332031 -65.320312 -4.28125 -65.0625 C -5.226562 -64.800781 -6.003906 -64.546875 -6.609375 -64.296875 C -8.472656 -63.503906 -9.707031 -62.507812 -10.3125 -61.3125 C -10.925781 -60.125 -10.960938 -58.890625 -10.421875 -57.609375 C -9.691406 -55.878906 -7.820312 -54.34375 -4.8125 -53 C -1.8125 -51.664062 2.160156 -51.117188 7.109375 -51.359375 C 9.046875 -56.597656 11.710938 -61.835938 15.109375 -67.078125 C 18.515625 -72.328125 22.671875 -77.160156 27.578125 -81.578125 C 32.484375 -86.003906 38.097656 -89.554688 44.421875 -92.234375 C 50.347656 -94.734375 55.113281 -95.53125 58.71875 -94.625 C 62.332031 -93.726562 64.742188 -91.847656 65.953125 -88.984375 C 67.160156 -86.140625 67.054688 -82.671875 65.640625 -78.578125 C 64.234375 -74.484375 61.632812 -70.75 57.84375 -67.375 C 55.257812 -65.125 51.988281 -62.804688 48.03125 -60.421875 C 44.070312 -58.046875 39.800781 -55.890625 35.21875 -53.953125 C 31.3125 -52.296875 27.226562 -50.898438 22.96875 -49.765625 C 18.71875 -48.628906 14.601562 -47.835938 10.625 -47.390625 C 10.132812 -45.859375 9.742188 -44.367188 9.453125 -42.921875 C 8.960938 -38.890625 8.894531 -34.71875 9.25 -30.40625 C 9.601562 -26.09375 10.460938 -22.757812 11.828125 -20.40625 C 14.429688 -16.550781 17.4375 -14.304688 20.84375 -13.671875 C 24.257812 -13.035156 27.65625 -13.429688 31.03125 -14.859375 C 34.332031 -16.253906 37.515625 -18.304688 40.578125 -21.015625 C 43.640625 -23.722656 46.191406 -26.222656 48.234375 -28.515625 C 49.335938 -29.867188 50.457031 -31.710938 51.59375 -34.046875 C 52.738281 -36.390625 53.789062 -38.890625 54.75 -41.546875 C 55.707031 -44.210938 56.484375 -46.773438 57.078125 -49.234375 C 57.671875 -51.703125 57.984375 -53.742188 58.015625 -55.359375 C 58.035156 -56.335938 58.425781 -56.988281 59.1875 -57.3125 C 59.695312 -57.53125 60.265625 -57.523438 60.890625 -57.296875 C 61.523438 -57.078125 62 -56.59375 62.3125 -55.84375 C 63.664062 -50.75 64.566406 -44.953125 65.015625 -38.453125 C 65.472656 -31.960938 65.265625 -25.65625 64.390625 -19.53125 C 67.648438 -20.382812 70.890625 -20.9375 74.109375 -21.1875 C 77.335938 -21.4375 79.726562 -20.875 81.28125 -19.5 C 81.519531 -19.34375 81.734375 -19.039062 81.921875 -18.59375 C 82.171875 -17.988281 82.203125 -17.378906 82.015625 -16.765625 C 81.835938 -16.148438 81.523438 -15.75 81.078125 -15.5625 C 80.546875 -15.332031 80.046875 -15.476562 79.578125 -16 C 78.421875 -16.832031 76.25 -17.039062 73.0625 -16.625 C 69.875 -16.207031 66.640625 -15.570312 63.359375 -14.71875 C 62.960938 -13.125 62.546875 -11.546875 62.109375 -9.984375 C 61.671875 -8.429688 61.125 -6.945312 60.46875 -5.53125 C 58.101562 -0.269531 55.195312 4.523438 51.75 8.859375 C 48.3125 13.191406 44.59375 16.957031 40.59375 20.15625 C 36.59375 23.351562 32.523438 25.828125 28.390625 27.578125 Z M 34.109375 -58.125 C 38.316406 -59.90625 42.210938 -61.84375 45.796875 -63.9375 C 49.390625 -66.03125 52.40625 -68.164062 54.84375 -70.34375 C 58.4375 -73.550781 60.789062 -76.515625 61.90625 -79.234375 C 63.019531 -81.960938 63.195312 -84.226562 62.4375 -86.03125 C 61.539062 -88.132812 59.640625 -89.476562 56.734375 -90.0625 C 53.828125 -90.65625 50.273438 -90.066406 46.078125 -88.296875 C 38.253906 -84.984375 31.347656 -80.046875 25.359375 -73.484375 C 19.367188 -66.921875 14.910156 -59.660156 11.984375 -51.703125 C 15.523438 -52.128906 19.195312 -52.925781 23 -54.09375 C 26.800781 -55.257812 30.503906 -56.601562 34.109375 -58.125 Z M 26.671875 23.515625 C 31.335938 21.546875 35.8125 18.613281 40.09375 14.71875 C 44.382812 10.820312 48.15625 6.4375 51.40625 1.5625 C 54.65625 -3.300781 57.070312 -8.148438 58.65625 -12.984375 C 57.757812 -12.785156 56.957031 -12.535156 56.25 -12.234375 C 55.539062 -11.941406 54.921875 -11.679688 54.390625 -11.453125 C 48.453125 -8.941406 42.613281 -5.984375 36.875 -2.578125 C 31.144531 0.816406 26 4.847656 21.4375 9.515625 C 18.664062 12.203125 16.941406 14.640625 16.265625 16.828125 C 15.597656 19.015625 15.535156 20.75 16.078125 22.03125 C 16.515625 23.070312 17.617188 23.90625 19.390625 24.53125 C 21.160156 25.15625 23.585938 24.816406 26.671875 23.515625 Z M 26.671875 23.515625 "/></g></g></g><g fill="#28ad5e" fill-opacity="1"><g transform="translate(58.040302, 318.856924)"><g><path d="M 20.546875 34.640625 C 21.691406 34.640625 22.976562 34.25 24.40625 33.46875 C 25.832031 32.695312 27.179688 31.785156 28.453125 30.734375 C 29.734375 29.691406 30.695312 28.71875 31.34375 27.8125 C 31.738281 27.3125 32.085938 26.875 32.390625 26.5 C 32.691406 26.125 33.019531 25.6875 33.375 25.1875 C 33.625 24.6875 33.894531 24.222656 34.1875 23.796875 C 34.488281 23.378906 34.738281 22.921875 34.9375 22.421875 C 35.738281 20.867188 36.265625 19.515625 36.515625 18.359375 C 36.765625 17.210938 36.875 16.078125 36.84375 14.953125 C 36.820312 13.828125 36.738281 12.566406 36.59375 11.171875 C 36.238281 11.273438 35.960938 11.410156 35.765625 11.578125 C 35.566406 11.753906 35.289062 11.96875 34.9375 12.21875 C 34.738281 12.414062 34.523438 12.585938 34.296875 12.734375 C 34.078125 12.890625 33.84375 13.066406 33.59375 13.265625 L 29.546875 16.875 C 28.191406 18.125 27.085938 19.132812 26.234375 19.90625 C 25.390625 20.6875 24.578125 21.5 23.796875 22.34375 C 23.023438 23.195312 22.066406 24.394531 20.921875 25.9375 C 20.566406 26.394531 20.128906 27.019531 19.609375 27.8125 C 19.085938 28.613281 18.625 29.460938 18.21875 30.359375 C 17.820312 31.265625 17.625 32.066406 17.625 32.765625 C 17.625 33.671875 17.8125 34.207031 18.1875 34.375 C 18.5625 34.550781 19.195312 34.640625 20.09375 34.640625 C 20.195312 34.640625 20.285156 34.640625 20.359375 34.640625 C 20.429688 34.640625 20.492188 34.640625 20.546875 34.640625 Z M 0 -8.921875 C 0 -11.617188 0.460938 -14.441406 1.390625 -17.390625 C 2.316406 -20.347656 3.488281 -23.25 4.90625 -26.09375 C 6.332031 -28.945312 7.769531 -31.5 9.21875 -33.75 C 9.875 -34.945312 10.710938 -36.234375 11.734375 -37.609375 C 12.753906 -38.984375 13.828125 -40.34375 14.953125 -41.6875 C 16.078125 -43.039062 17.117188 -44.21875 18.078125 -45.21875 C 19.773438 -46.863281 21.5 -48.375 23.25 -49.75 C 25 -51.125 26.882812 -52.234375 28.90625 -53.078125 C 30.925781 -53.929688 33.164062 -54.359375 35.625 -54.359375 C 38.019531 -54.210938 39.976562 -53.300781 41.5 -51.625 C 43.03125 -49.945312 44.171875 -47.882812 44.921875 -45.4375 C 45.671875 -42.988281 46.046875 -40.460938 46.046875 -37.859375 C 46.046875 -34.910156 45.742188 -31.910156 45.140625 -28.859375 C 44.535156 -25.816406 43.882812 -22.972656 43.1875 -20.328125 C 42.9375 -19.171875 42.671875 -18.15625 42.390625 -17.28125 C 42.117188 -16.40625 41.5625 -15.96875 40.71875 -15.96875 C 40.113281 -15.96875 39.785156 -16.414062 39.734375 -17.3125 C 39.691406 -18.21875 39.78125 -19.304688 40 -20.578125 C 40.226562 -21.859375 40.476562 -23.046875 40.75 -24.140625 C 41.03125 -25.242188 41.21875 -25.96875 41.3125 -26.3125 C 41.664062 -28.46875 41.976562 -30.78125 42.25 -33.25 C 42.53125 -35.726562 42.566406 -38.191406 42.359375 -40.640625 C 42.160156 -43.085938 41.535156 -45.3125 40.484375 -47.3125 C 39.734375 -48.757812 38.832031 -49.769531 37.78125 -50.34375 C 36.738281 -50.925781 35.617188 -51.21875 34.421875 -51.21875 C 33.367188 -51.21875 32.304688 -51.03125 31.234375 -50.65625 C 30.160156 -50.28125 29.125 -49.816406 28.125 -49.265625 C 27.414062 -48.816406 26.625 -48.300781 25.75 -47.71875 C 24.875 -47.144531 24.140625 -46.5625 23.546875 -45.96875 C 23.191406 -45.613281 22.851562 -45.320312 22.53125 -45.09375 C 22.207031 -44.875 21.867188 -44.566406 21.515625 -44.171875 L 12.671875 -33.59375 C 11.671875 -32.039062 10.882812 -30.75 10.3125 -29.71875 C 9.738281 -28.695312 9.097656 -27.539062 8.390625 -26.25 C 7.691406 -25.144531 6.96875 -23.726562 6.21875 -22 C 5.46875 -20.28125 4.816406 -18.53125 4.265625 -16.75 C 3.722656 -14.976562 3.328125 -13.46875 3.078125 -12.21875 C 2.921875 -11.070312 2.816406 -9.945312 2.765625 -8.84375 C 2.722656 -7.75 2.875 -6.648438 3.21875 -5.546875 C 3.71875 -4.296875 4.640625 -3.40625 5.984375 -2.875 C 7.335938 -2.351562 8.835938 -2.039062 10.484375 -1.9375 C 12.140625 -1.84375 13.644531 -1.769531 15 -1.71875 C 16.800781 -1.625 18.425781 -1.5625 19.875 -1.53125 C 21.320312 -1.507812 22.769531 -1.421875 24.21875 -1.265625 C 25.664062 -1.117188 27.265625 -0.75 29.015625 -0.15625 C 30.015625 0.144531 31.125 0.644531 32.34375 1.34375 C 33.570312 2.050781 34.6875 2.878906 35.6875 3.828125 C 36.6875 4.773438 37.3125 5.773438 37.5625 6.828125 C 38.664062 6.078125 39.941406 5.113281 41.390625 3.9375 C 42.835938 2.757812 44.296875 1.546875 45.765625 0.296875 C 47.242188 -0.953125 48.535156 -2.023438 49.640625 -2.921875 L 55.40625 -8.015625 C 55.90625 -8.515625 56.378906 -8.941406 56.828125 -9.296875 C 57.285156 -9.648438 57.765625 -10.078125 58.265625 -10.578125 C 59.109375 -11.472656 59.742188 -12.070312 60.171875 -12.375 C 60.597656 -12.675781 60.960938 -12.828125 61.265625 -12.828125 C 61.460938 -12.828125 61.632812 -12.800781 61.78125 -12.75 C 61.9375 -12.695312 62.113281 -12.644531 62.3125 -12.59375 C 62.3125 -12.09375 62.359375 -11.789062 62.453125 -11.6875 C 62.554688 -11.59375 62.59375 -11.507812 62.5625 -11.4375 C 62.539062 -11.363281 62.367188 -11.1875 62.046875 -10.90625 C 61.722656 -10.632812 61.132812 -10.070312 60.28125 -9.21875 C 58.632812 -7.625 57.125 -6.222656 55.75 -5.015625 C 54.375 -3.816406 52.910156 -2.46875 51.359375 -0.96875 L 46.5625 2.921875 C 46.164062 3.222656 45.578125 3.6875 44.796875 4.3125 C 44.023438 4.9375 43.203125 5.597656 42.328125 6.296875 C 41.453125 6.992188 40.675781 7.628906 40 8.203125 C 39.320312 8.785156 38.910156 9.203125 38.765625 9.453125 C 38.960938 10.242188 39.132812 11.050781 39.28125 11.875 C 39.4375 12.707031 39.515625 13.597656 39.515625 14.546875 C 39.515625 17.191406 38.898438 19.835938 37.671875 22.484375 C 36.453125 25.140625 34.878906 27.578125 32.953125 29.796875 C 31.023438 32.023438 28.988281 33.800781 26.84375 35.125 C 24.695312 36.457031 22.695312 37.125 20.84375 37.125 C 20.144531 37.125 19.359375 37.046875 18.484375 36.890625 C 17.609375 36.742188 16.84375 36.429688 16.1875 35.953125 C 15.539062 35.484375 15.21875 34.722656 15.21875 33.671875 C 15.21875 31.816406 15.53125 30.210938 16.15625 28.859375 C 16.78125 27.515625 17.644531 26.09375 18.75 24.59375 C 20.394531 22.289062 22.117188 20.289062 23.921875 18.59375 C 25.722656 16.894531 27.625 15.171875 29.625 13.421875 L 35.625 8.46875 C 34.269531 5.925781 32.566406 4.164062 30.515625 3.1875 C 28.460938 2.207031 25.960938 1.546875 23.015625 1.203125 L 16.953125 0.75 C 14.597656 0.695312 12.40625 0.644531 10.375 0.59375 C 8.351562 0.550781 6.492188 0.203125 4.796875 -0.453125 C 3.203125 -1.046875 2.003906 -2.066406 1.203125 -3.515625 C 0.398438 -4.972656 0 -6.773438 0 -8.921875 Z M 0 -8.921875 "/></g></g></g><g fill="#0c63a6" fill-opacity="1"><g transform="translate(117.737929, 318.856924)"><g><path d="M -21.078125 -33.4375 C -21.078125 -34.09375 -20.472656 -34.78125 -19.265625 -35.5 C -18.066406 -36.226562 -16.554688 -36.941406 -14.734375 -37.640625 C -12.910156 -38.335938 -10.984375 -39 -8.953125 -39.625 C -6.929688 -40.25 -5.070312 -40.785156 -3.375 -41.234375 C -1.675781 -41.691406 -0.398438 -42.046875 0.453125 -42.296875 C 1.503906 -42.585938 2.238281 -42.757812 2.65625 -42.8125 C 3.082031 -42.863281 3.359375 -43.023438 3.484375 -43.296875 C 3.609375 -43.578125 3.75 -44.140625 3.90625 -44.984375 C 4.300781 -47.035156 4.757812 -48.445312 5.28125 -49.21875 C 5.8125 -50 6.328125 -50.390625 6.828125 -50.390625 C 7.222656 -50.390625 7.554688 -50.175781 7.828125 -49.75 C 8.109375 -49.320312 8.25 -48.8125 8.25 -48.21875 C 8.25 -47.769531 8.222656 -47.582031 8.171875 -47.65625 C 8.117188 -47.726562 8.117188 -47.566406 8.171875 -47.171875 C 8.171875 -47.066406 8.179688 -46.9375 8.203125 -46.78125 C 8.234375 -46.632812 8.25 -46.4375 8.25 -46.1875 C 8.25 -45.539062 8.125 -45.21875 7.875 -45.21875 C 7.625 -45.21875 7.375 -45.175781 7.125 -45.09375 C 6.875 -45.019531 6.75 -44.585938 6.75 -43.796875 C 7.34375 -43.796875 8.003906 -43.878906 8.734375 -44.046875 C 9.460938 -44.222656 10.097656 -44.335938 10.640625 -44.390625 C 12.847656 -44.785156 15.050781 -45.144531 17.25 -45.46875 C 19.445312 -45.800781 21.695312 -45.96875 24 -45.96875 C 25.195312 -45.96875 26.066406 -45.71875 26.609375 -45.21875 C 27.160156 -44.71875 27.363281 -44.21875 27.21875 -43.71875 C 27.070312 -43.21875 26.519531 -42.96875 25.5625 -42.96875 C 25.46875 -43.363281 25.40625 -43.546875 25.375 -43.515625 C 25.351562 -43.492188 25.117188 -43.535156 24.671875 -43.640625 C 24.472656 -43.691406 24.070312 -43.71875 23.46875 -43.71875 C 22.414062 -43.71875 21.023438 -43.601562 19.296875 -43.375 C 17.578125 -43.15625 15.789062 -42.894531 13.9375 -42.59375 C 12.09375 -42.289062 10.445312 -42 9 -41.71875 C 7.550781 -41.445312 6.601562 -41.265625 6.15625 -41.171875 L 4.65625 -25.796875 C 4.601562 -25.441406 4.585938 -25.0625 4.609375 -24.65625 C 4.640625 -24.257812 4.65625 -23.863281 4.65625 -23.46875 C 4.65625 -22.96875 4.613281 -22.640625 4.53125 -22.484375 C 4.457031 -22.335938 4.421875 -21.992188 4.421875 -21.453125 C 4.421875 -20.347656 4.445312 -19.082031 4.5 -17.65625 C 4.550781 -16.226562 4.523438 -15.117188 4.421875 -14.328125 C 4.367188 -13.867188 4.332031 -12.976562 4.3125 -11.65625 C 4.289062 -10.332031 4.265625 -8.796875 4.234375 -7.046875 C 4.210938 -5.296875 4.203125 -3.53125 4.203125 -1.75 C 4.203125 0.0195312 4.203125 1.628906 4.203125 3.078125 C 4.203125 4.523438 4.226562 5.570312 4.28125 6.21875 C 4.28125 6.769531 4.34375 7.609375 4.46875 8.734375 C 4.59375 9.859375 4.613281 10.867188 4.53125 11.765625 C 4.457031 12.671875 4.097656 13.125 3.453125 13.125 C 2.503906 13.125 1.925781 12.597656 1.71875 11.546875 C 1.519531 10.492188 1.421875 9.519531 1.421875 8.625 C 1.273438 6.820312 1.1875 4.71875 1.15625 2.3125 C 1.132812 -0.0820312 1.132812 -2.476562 1.15625 -4.875 C 1.1875 -7.269531 1.203125 -9.367188 1.203125 -11.171875 L 1.421875 -14.703125 C 1.421875 -15.398438 1.421875 -16.472656 1.421875 -17.921875 C 1.421875 -19.367188 1.445312 -20.90625 1.5 -22.53125 C 1.550781 -24.15625 1.597656 -25.640625 1.640625 -26.984375 C 1.691406 -28.335938 1.769531 -29.289062 1.875 -29.84375 C 1.976562 -30.34375 2.039062 -30.941406 2.0625 -31.640625 C 2.082031 -32.335938 2.117188 -32.9375 2.171875 -33.4375 L 2.84375 -40.421875 C 2.644531 -40.367188 2.207031 -40.265625 1.53125 -40.109375 C 0.863281 -39.960938 0.328125 -39.835938 -0.078125 -39.734375 C -2.523438 -39.140625 -4.859375 -38.503906 -7.078125 -37.828125 C -9.304688 -37.148438 -11.597656 -36.363281 -13.953125 -35.46875 C -14.398438 -35.269531 -14.8125 -35.054688 -15.1875 -34.828125 C -15.5625 -34.609375 -15.972656 -34.394531 -16.421875 -34.1875 C -17.023438 -33.9375 -17.410156 -33.757812 -17.578125 -33.65625 C -17.753906 -33.5625 -17.84375 -33.4375 -17.84375 -33.28125 C -17.84375 -33.132812 -17.96875 -32.8125 -18.21875 -32.3125 C -18.414062 -32.269531 -18.613281 -32.234375 -18.8125 -32.203125 C -19.019531 -32.179688 -19.25 -32.171875 -19.5 -32.171875 C -19.894531 -32.171875 -20.253906 -32.253906 -20.578125 -32.421875 C -20.910156 -32.597656 -21.078125 -32.9375 -21.078125 -33.4375 Z M -21.078125 -33.4375 "/></g></g></g><g fill="#0c63a6" fill-opacity="1"><g transform="translate(126.437008, 318.856924)"><g><path d="M 6.21875 0.296875 C 5.21875 0.296875 4.332031 -0.0234375 3.5625 -0.671875 C 2.789062 -1.328125 2.203125 -2.003906 1.796875 -2.703125 C 0.898438 -4.398438 0.390625 -6.410156 0.265625 -8.734375 C 0.140625 -11.054688 0.273438 -13.171875 0.671875 -15.078125 C 0.773438 -15.617188 0.910156 -16.273438 1.078125 -17.046875 C 1.253906 -17.828125 1.519531 -18.515625 1.875 -19.109375 C 2.226562 -19.710938 2.65625 -20.015625 3.15625 -20.015625 C 4.300781 -20.015625 4.859375 -19.628906 4.828125 -18.859375 C 4.804688 -18.085938 4.59375 -16.890625 4.1875 -15.265625 C 3.789062 -13.640625 3.59375 -11.550781 3.59375 -9 C 3.59375 -8.25 3.691406 -7.347656 3.890625 -6.296875 C 4.097656 -5.242188 4.410156 -4.316406 4.828125 -3.515625 C 5.253906 -2.722656 5.796875 -2.328125 6.453125 -2.328125 C 7.242188 -2.328125 8.148438 -2.675781 9.171875 -3.375 C 10.203125 -4.070312 11.15625 -4.859375 12.03125 -5.734375 C 12.90625 -6.609375 13.519531 -7.269531 13.875 -7.71875 C 13.96875 -7.820312 14.238281 -8.160156 14.6875 -8.734375 C 15.144531 -9.304688 15.6875 -9.953125 16.3125 -10.671875 C 16.9375 -11.398438 17.546875 -12.039062 18.140625 -12.59375 C 18.742188 -13.144531 19.222656 -13.421875 19.578125 -13.421875 C 19.921875 -13.421875 20.09375 -13.117188 20.09375 -12.515625 C 20.09375 -12.171875 19.851562 -11.632812 19.375 -10.90625 C 18.90625 -10.1875 18.34375 -9.425781 17.6875 -8.625 C 17.039062 -7.820312 16.40625 -7.070312 15.78125 -6.375 C 15.15625 -5.675781 14.691406 -5.175781 14.390625 -4.875 C 13.796875 -4.269531 13.082031 -3.554688 12.25 -2.734375 C 11.425781 -1.910156 10.515625 -1.195312 9.515625 -0.59375 C 8.515625 0 7.414062 0.296875 6.21875 0.296875 Z M 3.828125 -29.46875 C 3.828125 -30.320312 4.050781 -31.0625 4.5 -31.6875 C 4.945312 -32.3125 5.445312 -32.625 6 -32.625 C 6.601562 -32.625 7.101562 -32.25 7.5 -31.5 C 8.195312 -30.09375 8.28125 -29 7.75 -28.21875 C 7.226562 -27.445312 6.59375 -27.0625 5.84375 -27.0625 C 5.34375 -27.0625 4.878906 -27.257812 4.453125 -27.65625 C 4.035156 -28.0625 3.828125 -28.664062 3.828125 -29.46875 Z M 3.828125 -29.46875 "/></g></g></g><g fill="#0c63a6" fill-opacity="1"><g transform="translate(143.535192, 318.856924)"><g><path d="M 0.15625 -5.78125 C 0.15625 -8.269531 0.300781 -10.960938 0.59375 -13.859375 C 0.894531 -16.765625 1.296875 -19.640625 1.796875 -22.484375 C 2.296875 -25.335938 2.847656 -27.914062 3.453125 -30.21875 C 3.703125 -30.96875 3.953125 -31.804688 4.203125 -32.734375 C 4.453125 -33.660156 4.773438 -34.457031 5.171875 -35.125 C 5.578125 -35.800781 6.101562 -36.140625 6.75 -36.140625 C 7.34375 -36.140625 7.710938 -35.914062 7.859375 -35.46875 C 8.015625 -35.019531 8.03125 -34.484375 7.90625 -33.859375 C 7.78125 -33.234375 7.617188 -32.65625 7.421875 -32.125 C 7.222656 -31.601562 7.097656 -31.242188 7.046875 -31.046875 C 6.648438 -29.546875 6.1875 -27.507812 5.65625 -24.9375 C 5.132812 -22.363281 4.632812 -19.550781 4.15625 -16.5 C 3.6875 -13.445312 3.328125 -10.421875 3.078125 -7.421875 C 2.828125 -4.421875 2.773438 -1.710938 2.921875 0.703125 C 3.078125 3.128906 3.476562 4.992188 4.125 6.296875 C 4.976562 5.847656 5.675781 5.171875 6.21875 4.265625 C 6.769531 3.367188 7.242188 2.5 7.640625 1.65625 C 8.796875 -0.550781 9.921875 -2.878906 11.015625 -5.328125 C 12.117188 -7.773438 13.269531 -10.070312 14.46875 -12.21875 C 14.875 -13.019531 15.300781 -13.421875 15.75 -13.421875 C 15.945312 -13.421875 16.109375 -13.332031 16.234375 -13.15625 C 16.359375 -12.976562 16.421875 -12.789062 16.421875 -12.59375 C 16.421875 -12.445312 16.21875 -11.972656 15.8125 -11.171875 C 15.414062 -10.367188 15.003906 -9.539062 14.578125 -8.6875 C 14.160156 -7.84375 13.875 -7.296875 13.71875 -7.046875 C 13.21875 -5.992188 12.65625 -4.769531 12.03125 -3.375 C 11.40625 -1.976562 10.789062 -0.601562 10.1875 0.75 C 9.59375 2.101562 9.019531 3.253906 8.46875 4.203125 C 8.21875 4.597656 7.878906 5.132812 7.453125 5.8125 C 7.035156 6.488281 6.578125 7.078125 6.078125 7.578125 C 5.578125 8.078125 5 8.328125 4.34375 8.328125 C 3.34375 8.328125 2.554688 7.828125 1.984375 6.828125 C 1.410156 5.828125 1 4.578125 0.75 3.078125 C 0.5 1.578125 0.335938 0.03125 0.265625 -1.5625 C 0.191406 -3.164062 0.15625 -4.570312 0.15625 -5.78125 Z M 0.15625 -5.78125 "/></g></g></g><g fill="#0c63a6" fill-opacity="1"><g transform="translate(156.733788, 318.856924)"><g><path d="M 3.75 -1.71875 C 4.5 -1.925781 5.171875 -2.59375 5.765625 -3.71875 C 6.367188 -4.84375 6.796875 -6.128906 7.046875 -7.578125 C 7.296875 -9.023438 7.359375 -10.359375 7.234375 -11.578125 C 7.109375 -12.804688 6.722656 -13.644531 6.078125 -14.09375 C 5.921875 -13.539062 5.644531 -12.753906 5.25 -11.734375 C 4.851562 -10.710938 4.46875 -9.585938 4.09375 -8.359375 C 3.71875 -7.140625 3.46875 -5.941406 3.34375 -4.765625 C 3.21875 -3.585938 3.351562 -2.570312 3.75 -1.71875 Z M 0 -4.28125 C 0 -4.925781 0.132812 -5.882812 0.40625 -7.15625 C 0.6875 -8.4375 1.078125 -9.8125 1.578125 -11.28125 C 2.078125 -12.757812 2.640625 -14.160156 3.265625 -15.484375 C 3.890625 -16.804688 4.5625 -17.890625 5.28125 -18.734375 C 6.007812 -19.585938 6.75 -20.015625 7.5 -20.015625 C 8 -20.015625 8.347656 -19.789062 8.546875 -19.34375 C 8.742188 -18.894531 8.796875 -18.519531 8.703125 -18.21875 C 8.597656 -17.96875 8.40625 -17.71875 8.125 -17.46875 C 7.851562 -17.21875 7.617188 -16.941406 7.421875 -16.640625 C 7.523438 -16.296875 7.773438 -15.910156 8.171875 -15.484375 C 8.566406 -15.054688 8.960938 -14.492188 9.359375 -13.796875 C 9.765625 -13.097656 10.03125 -12.144531 10.15625 -10.9375 C 10.28125 -9.738281 10.144531 -8.164062 9.75 -6.21875 C 9.195312 -3.625 8.320312 -1.675781 7.125 -0.375 C 5.925781 0.925781 4.75 1.578125 3.59375 1.578125 C 2.644531 1.578125 1.804688 1.085938 1.078125 0.109375 C 0.359375 -0.859375 0 -2.320312 0 -4.28125 Z M 0 -4.28125 "/></g></g></g><g fill="#0c63a6" fill-opacity="1"><g transform="translate(169.932384, 318.856924)"><g/></g></g><g fill="#0c63a6" fill-opacity="1"><g transform="translate(189.355311, 318.856924)"><g><path d="M 33.671875 37.265625 C 34.921875 37.265625 36.117188 36.539062 37.265625 35.09375 C 38.410156 33.644531 39.492188 31.796875 40.515625 29.546875 C 41.546875 27.296875 42.445312 24.929688 43.21875 22.453125 C 44 19.984375 44.625 17.695312 45.09375 15.59375 C 45.570312 13.5 45.835938 11.898438 45.890625 10.796875 C 45.390625 11.191406 44.953125 11.648438 44.578125 12.171875 C 44.203125 12.703125 43.765625 13.191406 43.265625 13.640625 C 41.960938 14.941406 40.585938 16.53125 39.140625 18.40625 C 37.691406 20.28125 36.367188 22.203125 35.171875 24.171875 C 33.972656 26.148438 33.097656 27.96875 32.546875 29.625 C 32.390625 30.125 32.210938 30.796875 32.015625 31.640625 C 31.816406 32.492188 31.691406 33.34375 31.640625 34.1875 C 31.585938 35.039062 31.710938 35.765625 32.015625 36.359375 C 32.316406 36.960938 32.867188 37.265625 33.671875 37.265625 Z M 0 -6.453125 C 0 -9.648438 0.273438 -12.957031 0.828125 -16.375 C 1.378906 -19.800781 2.140625 -23.175781 3.109375 -26.5 C 4.085938 -29.832031 5.226562 -32.921875 6.53125 -35.765625 C 7.375 -37.515625 8.394531 -39.375 9.59375 -41.34375 C 10.789062 -43.320312 12.164062 -45.1875 13.71875 -46.9375 C 15.269531 -48.6875 16.96875 -50.109375 18.8125 -51.203125 C 20.664062 -52.304688 22.691406 -52.859375 24.890625 -52.859375 C 26.835938 -52.859375 28.675781 -52.269531 30.40625 -51.09375 C 32.132812 -49.925781 33.625 -48.09375 34.875 -45.59375 C 36.320312 -42.6875 37.207031 -39.382812 37.53125 -35.6875 C 37.851562 -31.988281 37.8125 -28.265625 37.40625 -24.515625 C 37.007812 -20.765625 36.414062 -17.289062 35.625 -14.09375 C 35.269531 -12.644531 34.992188 -11.65625 34.796875 -11.125 C 34.597656 -10.601562 34.269531 -10.34375 33.8125 -10.34375 C 33.664062 -10.34375 33.476562 -10.378906 33.25 -10.453125 C 33.03125 -10.535156 32.769531 -10.597656 32.46875 -10.640625 C 32.269531 -11.691406 32.21875 -12.539062 32.3125 -13.1875 C 32.414062 -13.84375 32.539062 -14.722656 32.6875 -15.828125 C 33.144531 -17.921875 33.484375 -19.753906 33.703125 -21.328125 C 33.929688 -22.898438 34.066406 -24.488281 34.109375 -26.09375 C 34.160156 -27.695312 34.1875 -29.570312 34.1875 -31.71875 C 34.1875 -33.320312 34.007812 -35.097656 33.65625 -37.046875 C 33.3125 -38.992188 32.765625 -40.863281 32.015625 -42.65625 C 31.265625 -44.457031 30.3125 -45.945312 29.15625 -47.125 C 28.007812 -48.300781 26.613281 -48.890625 24.96875 -48.890625 C 23.125 -48.890625 21.390625 -48.289062 19.765625 -47.09375 C 18.140625 -45.894531 16.613281 -44.34375 15.1875 -42.4375 C 13.757812 -40.539062 12.484375 -38.503906 11.359375 -36.328125 C 10.234375 -34.148438 9.269531 -32.050781 8.46875 -30.03125 C 7.675781 -28.007812 7.078125 -26.296875 6.671875 -24.890625 C 6.078125 -22.890625 5.503906 -20.515625 4.953125 -17.765625 C 4.398438 -15.015625 4.007812 -12.148438 3.78125 -9.171875 C 3.5625 -6.203125 3.585938 -3.332031 3.859375 -0.5625 C 4.140625 2.207031 4.800781 4.671875 5.84375 6.828125 C 6.195312 7.523438 6.609375 8.257812 7.078125 9.03125 C 7.554688 9.8125 8.117188 10.453125 8.765625 10.953125 C 9.617188 11.703125 10.53125 12.238281 11.5 12.5625 C 12.476562 12.882812 13.46875 13.046875 14.46875 13.046875 C 16.320312 13.046875 18.1875 12.632812 20.0625 11.8125 C 21.9375 10.988281 23.695312 9.972656 25.34375 8.765625 C 26.988281 7.566406 28.363281 6.421875 29.46875 5.328125 L 33.515625 0.90625 C 35.367188 -1.445312 36.867188 -3.625 38.015625 -5.625 C 39.160156 -7.625 40.484375 -9.921875 41.984375 -12.515625 C 42.390625 -13.222656 42.890625 -14.140625 43.484375 -15.265625 C 44.085938 -16.390625 44.738281 -17.515625 45.4375 -18.640625 C 46.132812 -19.765625 46.832031 -20.710938 47.53125 -21.484375 C 48.238281 -22.253906 48.890625 -22.640625 49.484375 -22.640625 C 50.191406 -22.640625 50.71875 -22.273438 51.0625 -21.546875 C 51.414062 -20.828125 51.65625 -19.941406 51.78125 -18.890625 C 51.90625 -17.847656 51.96875 -16.800781 51.96875 -15.75 C 51.96875 -14.695312 51.96875 -13.847656 51.96875 -13.203125 C 51.96875 -9.847656 51.738281 -6.742188 51.28125 -3.890625 C 50.832031 -1.046875 50.585938 1.125 50.546875 2.625 C 50.796875 2.476562 50.957031 2.328125 51.03125 2.171875 C 51.101562 2.023438 51.316406 1.851562 51.671875 1.65625 C 51.921875 1.40625 52.117188 1.238281 52.265625 1.15625 C 52.410156 1.082031 52.609375 0.945312 52.859375 0.75 L 63.28125 -9.453125 C 63.582031 -9.847656 63.984375 -10.332031 64.484375 -10.90625 C 64.984375 -11.476562 65.507812 -12.003906 66.0625 -12.484375 C 66.613281 -12.960938 67.140625 -13.203125 67.640625 -13.203125 C 68.390625 -13.203125 68.675781 -12.9375 68.5 -12.40625 C 68.320312 -11.882812 67.945312 -11.257812 67.375 -10.53125 C 66.800781 -9.8125 66.203125 -9.140625 65.578125 -8.515625 C 64.953125 -7.890625 64.5625 -7.476562 64.40625 -7.28125 C 63.90625 -6.78125 63.46875 -6.289062 63.09375 -5.8125 C 62.71875 -5.332031 62.257812 -4.84375 61.71875 -4.34375 L 50.46875 6.296875 C 49.96875 6.742188 49.664062 7.367188 49.5625 8.171875 C 49.46875 8.972656 49.316406 9.695312 49.109375 10.34375 C 48.765625 12.289062 48.28125 14.566406 47.65625 17.171875 C 47.03125 19.773438 46.265625 22.410156 45.359375 25.078125 C 44.460938 27.753906 43.398438 30.226562 42.171875 32.5 C 40.953125 34.78125 39.539062 36.59375 37.9375 37.9375 C 37.59375 38.238281 37.054688 38.601562 36.328125 39.03125 C 35.609375 39.457031 34.972656 39.671875 34.421875 39.671875 C 32.671875 39.671875 31.441406 39.316406 30.734375 38.609375 C 30.035156 37.910156 29.632812 37.007812 29.53125 35.90625 C 29.4375 34.8125 29.390625 33.691406 29.390625 32.546875 C 29.390625 30.890625 29.765625 29.175781 30.515625 27.40625 C 31.265625 25.632812 32.226562 23.882812 33.40625 22.15625 C 34.582031 20.4375 35.769531 18.800781 36.96875 17.25 C 38.164062 15.695312 39.210938 14.347656 40.109375 13.203125 C 40.460938 12.796875 40.800781 12.441406 41.125 12.140625 C 41.445312 11.847656 41.734375 11.472656 41.984375 11.015625 C 42.941406 9.816406 43.71875 9.003906 44.3125 8.578125 C 44.914062 8.160156 45.390625 7.828125 45.734375 7.578125 C 46.085938 7.328125 46.375 6.910156 46.59375 6.328125 C 46.820312 5.753906 47.0625 4.71875 47.3125 3.21875 C 47.46875 2.019531 47.679688 0.382812 47.953125 -1.6875 C 48.222656 -3.757812 48.472656 -5.929688 48.703125 -8.203125 C 48.929688 -10.484375 49.066406 -12.625 49.109375 -14.625 C 49.160156 -16.625 49.0625 -18.148438 48.8125 -19.203125 L 45.59375 -13.875 C 44.539062 -12.21875 43.664062 -10.773438 42.96875 -9.546875 C 42.269531 -8.328125 41.59375 -7.164062 40.9375 -6.0625 C 40.289062 -4.96875 39.550781 -3.804688 38.71875 -2.578125 C 37.894531 -1.359375 36.863281 0.0703125 35.625 1.71875 C 34.664062 3.070312 33.398438 4.535156 31.828125 6.109375 C 30.253906 7.679688 28.503906 9.191406 26.578125 10.640625 C 24.648438 12.097656 22.710938 13.285156 20.765625 14.203125 C 18.816406 15.128906 16.992188 15.59375 15.296875 15.59375 C 13.546875 15.59375 11.96875 15.476562 10.5625 15.25 C 9.164062 15.03125 7.820312 14.242188 6.53125 12.890625 C 4.070312 10.390625 2.367188 7.515625 1.421875 4.265625 C 0.472656 1.023438 0 -2.546875 0 -6.453125 Z M 0 -6.453125 "/></g></g></g><g fill="#28ad5e" fill-opacity="1"><g transform="translate(254.302418, 318.856924)"><g><path d="M 3.453125 -13.578125 C 4.398438 -14.078125 5.445312 -14.765625 6.59375 -15.640625 C 7.75 -16.515625 8.375 -17.550781 8.46875 -18.75 C 7.820312 -18.644531 7.132812 -18.289062 6.40625 -17.6875 C 5.6875 -17.09375 5.0625 -16.421875 4.53125 -15.671875 C 4.007812 -14.921875 3.648438 -14.222656 3.453125 -13.578125 Z M 0.078125 -11.765625 C 0.078125 -13.015625 0.488281 -14.363281 1.3125 -15.8125 C 2.132812 -17.269531 3.15625 -18.507812 4.375 -19.53125 C 5.601562 -20.5625 6.816406 -21.078125 8.015625 -21.078125 C 9.671875 -21.078125 10.535156 -20.453125 10.609375 -19.203125 C 10.679688 -17.953125 10.144531 -16.597656 9 -15.140625 C 8.394531 -14.492188 7.492188 -13.742188 6.296875 -12.890625 C 5.097656 -12.046875 3.925781 -11.570312 2.78125 -11.46875 C 2.78125 -10.664062 2.800781 -9.953125 2.84375 -9.328125 C 2.894531 -8.703125 3.25 -8.066406 3.90625 -7.421875 C 4.550781 -6.773438 5.375 -6.453125 6.375 -6.453125 C 7.675781 -6.453125 9.023438 -6.863281 10.421875 -7.6875 C 11.816406 -8.507812 12.890625 -9.195312 13.640625 -9.75 C 13.941406 -10 14.179688 -10.195312 14.359375 -10.34375 C 14.535156 -10.5 14.75 -10.675781 15 -10.875 C 16.050781 -11.675781 16.710938 -12.265625 16.984375 -12.640625 C 17.253906 -13.015625 17.488281 -13.265625 17.6875 -13.390625 C 17.894531 -13.515625 18.375 -13.578125 19.125 -13.578125 C 19.21875 -13.023438 19.253906 -12.644531 19.234375 -12.4375 C 19.210938 -12.238281 19.023438 -11.941406 18.671875 -11.546875 C 17.773438 -10.648438 16.640625 -9.625 15.265625 -8.46875 C 13.890625 -7.320312 12.410156 -6.320312 10.828125 -5.46875 C 9.253906 -4.625 7.695312 -4.203125 6.15625 -4.203125 C 5.351562 -4.203125 4.585938 -4.335938 3.859375 -4.609375 C 3.140625 -4.890625 2.453125 -5.351562 1.796875 -6 C 0.898438 -6.894531 0.390625 -7.816406 0.265625 -8.765625 C 0.140625 -9.722656 0.078125 -10.722656 0.078125 -11.765625 Z M 0.078125 -11.765625 "/></g></g></g><g fill="#28ad5e" fill-opacity="1"><g transform="translate(270.575688, 318.856924)"><g><path d="M 0.90625 12.375 C 0.90625 13.425781 1.226562 13.953125 1.875 13.953125 C 2.226562 13.953125 2.601562 13.828125 3 13.578125 C 3.394531 13.328125 3.71875 13.097656 3.96875 12.890625 C 4.96875 12.140625 5.851562 11.003906 6.625 9.484375 C 7.40625 7.960938 7.972656 6.578125 8.328125 5.328125 C 8.578125 4.472656 8.710938 3.609375 8.734375 2.734375 C 8.753906 1.859375 8.765625 0.894531 8.765625 -0.15625 C 8.171875 0.195312 7.484375 0.8125 6.703125 1.6875 C 5.929688 2.5625 5.320312 3.273438 4.875 3.828125 C 3.976562 4.921875 3.09375 6.242188 2.21875 7.796875 C 1.34375 9.347656 0.90625 10.875 0.90625 12.375 Z M 0.21875 -12.140625 C 0.21875 -13.441406 0.566406 -14.601562 1.265625 -15.625 C 1.972656 -16.65625 2.8125 -17.484375 3.78125 -18.109375 C 4.757812 -18.734375 5.597656 -19.046875 6.296875 -19.046875 C 6.847656 -19.046875 7.257812 -18.84375 7.53125 -18.4375 C 7.8125 -18.039062 7.828125 -17.367188 7.578125 -16.421875 C 6.972656 -16.273438 6.546875 -16.1875 6.296875 -16.15625 C 6.046875 -16.132812 5.84375 -16.0625 5.6875 -15.9375 C 5.539062 -15.8125 5.269531 -15.523438 4.875 -15.078125 C 3.875 -13.972656 3.410156 -13.082031 3.484375 -12.40625 C 3.554688 -11.726562 3.957031 -11.101562 4.6875 -10.53125 C 5.414062 -9.957031 6.316406 -9.242188 7.390625 -8.390625 C 8.460938 -7.546875 9.472656 -6.398438 10.421875 -4.953125 C 11.523438 -5.703125 12.648438 -6.578125 13.796875 -7.578125 L 20.765625 -12.453125 C 21.421875 -12.898438 21.984375 -13.207031 22.453125 -13.375 C 22.929688 -13.550781 23.34375 -13.640625 23.6875 -13.640625 C 24.289062 -13.640625 24.539062 -13.390625 24.4375 -12.890625 C 24.34375 -12.390625 23.867188 -11.890625 23.015625 -11.390625 L 17.921875 -7.875 C 17.722656 -7.769531 17.296875 -7.476562 16.640625 -7 C 15.992188 -6.53125 15.28125 -6.007812 14.5 -5.4375 C 13.726562 -4.863281 13.066406 -4.328125 12.515625 -3.828125 C 11.972656 -3.328125 11.675781 -3 11.625 -2.84375 C 11.570312 -2.59375 11.644531 -2.117188 11.84375 -1.421875 C 12.039062 -0.722656 12.175781 0.1875 12.25 1.3125 C 12.332031 2.4375 12.1875 3.8125 11.8125 5.4375 C 11.4375 7.0625 10.625 8.945312 9.375 11.09375 C 8.269531 12.945312 7.066406 14.3125 5.765625 15.1875 C 4.472656 16.0625 3.25 16.5 2.09375 16.5 C 1.050781 16.5 0.191406 16.144531 -0.484375 15.4375 C -1.160156 14.738281 -1.5 13.71875 -1.5 12.375 C -1.5 10.675781 -1.085938 9.023438 -0.265625 7.421875 C 0.554688 5.828125 1.539062 4.351562 2.6875 3 C 3.84375 1.644531 4.90625 0.484375 5.875 -0.484375 C 6.851562 -1.460938 7.492188 -2.175781 7.796875 -2.625 C 7.203125 -3.675781 6.476562 -4.585938 5.625 -5.359375 C 4.769531 -6.140625 3.929688 -6.851562 3.109375 -7.5 C 2.285156 -8.144531 1.597656 -8.828125 1.046875 -9.546875 C 0.492188 -10.273438 0.21875 -11.140625 0.21875 -12.140625 Z M 0.21875 -12.140625 "/></g></g></g><g fill="#28ad5e" fill-opacity="1"><g transform="translate(292.248374, 318.856924)"><g><path d="M 0.90625 12.375 C 0.90625 13.425781 1.226562 13.953125 1.875 13.953125 C 2.226562 13.953125 2.601562 13.828125 3 13.578125 C 3.394531 13.328125 3.71875 13.097656 3.96875 12.890625 C 4.96875 12.140625 5.851562 11.003906 6.625 9.484375 C 7.40625 7.960938 7.972656 6.578125 8.328125 5.328125 C 8.578125 4.472656 8.710938 3.609375 8.734375 2.734375 C 8.753906 1.859375 8.765625 0.894531 8.765625 -0.15625 C 8.171875 0.195312 7.484375 0.8125 6.703125 1.6875 C 5.929688 2.5625 5.320312 3.273438 4.875 3.828125 C 3.976562 4.921875 3.09375 6.242188 2.21875 7.796875 C 1.34375 9.347656 0.90625 10.875 0.90625 12.375 Z M 0.21875 -12.140625 C 0.21875 -13.441406 0.566406 -14.601562 1.265625 -15.625 C 1.972656 -16.65625 2.8125 -17.484375 3.78125 -18.109375 C 4.757812 -18.734375 5.597656 -19.046875 6.296875 -19.046875 C 6.847656 -19.046875 7.257812 -18.84375 7.53125 -18.4375 C 7.8125 -18.039062 7.828125 -17.367188 7.578125 -16.421875 C 6.972656 -16.273438 6.546875 -16.1875 6.296875 -16.15625 C 6.046875 -16.132812 5.84375 -16.0625 5.6875 -15.9375 C 5.539062 -15.8125 5.269531 -15.523438 4.875 -15.078125 C 3.875 -13.972656 3.410156 -13.082031 3.484375 -12.40625 C 3.554688 -11.726562 3.957031 -11.101562 4.6875 -10.53125 C 5.414062 -9.957031 6.316406 -9.242188 7.390625 -8.390625 C 8.460938 -7.546875 9.472656 -6.398438 10.421875 -4.953125 C 11.523438 -5.703125 12.648438 -6.578125 13.796875 -7.578125 L 20.765625 -12.453125 C 21.421875 -12.898438 21.984375 -13.207031 22.453125 -13.375 C 22.929688 -13.550781 23.34375 -13.640625 23.6875 -13.640625 C 24.289062 -13.640625 24.539062 -13.390625 24.4375 -12.890625 C 24.34375 -12.390625 23.867188 -11.890625 23.015625 -11.390625 L 17.921875 -7.875 C 17.722656 -7.769531 17.296875 -7.476562 16.640625 -7 C 15.992188 -6.53125 15.28125 -6.007812 14.5 -5.4375 C 13.726562 -4.863281 13.066406 -4.328125 12.515625 -3.828125 C 11.972656 -3.328125 11.675781 -3 11.625 -2.84375 C 11.570312 -2.59375 11.644531 -2.117188 11.84375 -1.421875 C 12.039062 -0.722656 12.175781 0.1875 12.25 1.3125 C 12.332031 2.4375 12.1875 3.8125 11.8125 5.4375 C 11.4375 7.0625 10.625 8.945312 9.375 11.09375 C 8.269531 12.945312 7.066406 14.3125 5.765625 15.1875 C 4.472656 16.0625 3.25 16.5 2.09375 16.5 C 1.050781 16.5 0.191406 16.144531 -0.484375 15.4375 C -1.160156 14.738281 -1.5 13.71875 -1.5 12.375 C -1.5 10.675781 -1.085938 9.023438 -0.265625 7.421875 C 0.554688 5.828125 1.539062 4.351562 2.6875 3 C 3.84375 1.644531 4.90625 0.484375 5.875 -0.484375 C 6.851562 -1.460938 7.492188 -2.175781 7.796875 -2.625 C 7.203125 -3.675781 6.476562 -4.585938 5.625 -5.359375 C 4.769531 -6.140625 3.929688 -6.851562 3.109375 -7.5 C 2.285156 -8.144531 1.597656 -8.828125 1.046875 -9.546875 C 0.492188 -10.273438 0.21875 -11.140625 0.21875 -12.140625 Z M 0.21875 -12.140625 "/></g></g></g><g fill="#28ad5e" fill-opacity="1"><g transform="translate(313.921061, 318.856924)"><g><path d="M 3.75 -1.71875 C 4.5 -1.925781 5.171875 -2.59375 5.765625 -3.71875 C 6.367188 -4.84375 6.796875 -6.128906 7.046875 -7.578125 C 7.296875 -9.023438 7.359375 -10.359375 7.234375 -11.578125 C 7.109375 -12.804688 6.722656 -13.644531 6.078125 -14.09375 C 5.921875 -13.539062 5.644531 -12.753906 5.25 -11.734375 C 4.851562 -10.710938 4.46875 -9.585938 4.09375 -8.359375 C 3.71875 -7.140625 3.46875 -5.941406 3.34375 -4.765625 C 3.21875 -3.585938 3.351562 -2.570312 3.75 -1.71875 Z M 0 -4.28125 C 0 -4.925781 0.132812 -5.882812 0.40625 -7.15625 C 0.6875 -8.4375 1.078125 -9.8125 1.578125 -11.28125 C 2.078125 -12.757812 2.640625 -14.160156 3.265625 -15.484375 C 3.890625 -16.804688 4.5625 -17.890625 5.28125 -18.734375 C 6.007812 -19.585938 6.75 -20.015625 7.5 -20.015625 C 8 -20.015625 8.347656 -19.789062 8.546875 -19.34375 C 8.742188 -18.894531 8.796875 -18.519531 8.703125 -18.21875 C 8.597656 -17.96875 8.40625 -17.71875 8.125 -17.46875 C 7.851562 -17.21875 7.617188 -16.941406 7.421875 -16.640625 C 7.523438 -16.296875 7.773438 -15.910156 8.171875 -15.484375 C 8.566406 -15.054688 8.960938 -14.492188 9.359375 -13.796875 C 9.765625 -13.097656 10.03125 -12.144531 10.15625 -10.9375 C 10.28125 -9.738281 10.144531 -8.164062 9.75 -6.21875 C 9.195312 -3.625 8.320312 -1.675781 7.125 -0.375 C 5.925781 0.925781 4.75 1.578125 3.59375 1.578125 C 2.644531 1.578125 1.804688 1.085938 1.078125 0.109375 C 0.359375 -0.859375 0 -2.320312 0 -4.28125 Z M 0 -4.28125 "/></g></g></g></svg>